# xmcd
#
# Track frame offsets: 
#        150
#        16255
#        37294
#        55946
#        69372
#        84964
#        100507
#        120205
#        132263
#        151000
#
# Disc length: 2237 seconds
#
# Revision: 1
# Processed by: cddbd v1.5.2PL0 Copyright (c) Steve Scherf et al.
# Submitted via: ExactAudioCopyFreeDBPlugin 1.0
#
DISCID=6d08bb0a
DTITLE=Βασίλης Παπακωνσταντίνου - Όλα Από  Χέρι Καμένα
DYEAR=1988
DGENRE=Blues
TTITLE0='Ολα Από Χέρι Καμένα
TTITLE1=Μπουμ
TTITLE2=Κάντιλακ
TTITLE3=Ένα Μπλουζ
TTITLE4=Αλίκη
TTITLE5=Κοντρόλ
TTITLE6=Ηλεκτρικό Πρόβατο
TTITLE7="Πρωταθλητής"
TTITLE8=Γενέθλια '86
TTITLE9=Ονειρεύομαι ( L.A.)
EXTD=
EXTT0=
EXTT1=
EXTT2=
EXTT3=
EXTT4=
EXTT5=
EXTT6=
EXTT7=
EXTT8=
EXTT9=
PLAYORDER=
